<svg xmlns="http://www.w3.org/2000/svg" viewBox="0 0 400 200" role="img" aria-label="Podcast waveform">
  <rect width="400" height="200" rx="14" fill="#0B0F14"/>
  <g stroke="#8FDB69" stroke-width="5" stroke-linecap="round" opacity="0.9">
    <line x1="30" y1="100" x2="30" y2="100"/><line x1="52" y1="80" x2="52" y2="120"/><line x1="74" y1="60" x2="74" y2="140"/><line x1="96" y1="90" x2="96" y2="110"/><line x1="118" y1="45" x2="118" y2="155"/><line x1="140" y1="70" x2="140" y2="130"/><line x1="162" y1="30" x2="162" y2="170"/><line x1="184" y1="85" x2="184" y2="115"/><line x1="206" y1="55" x2="206" y2="145"/><line x1="228" y1="95" x2="228" y2="105"/><line x1="250" y1="40" x2="250" y2="160"/><line x1="272" y1="75" x2="272" y2="125"/><line x1="294" y1="60" x2="294" y2="140"/><line x1="316" y1="88" x2="316" y2="112"/><line x1="338" y1="70" x2="338" y2="130"/><line x1="360" y1="95" x2="360" y2="105"/>
  </g>
  <circle cx="162" cy="30" r="5" fill="#E0B34E"/>
</svg>
